 <svg  version="1.0" xmlns="http://www.w3.org/2000/svg"  width="300.000000pt" height="532.000000pt" viewBox="0 0 300.000000 532.000000"  preserveAspectRatio="xMidYMid meet">  <g transform="translate(0.000000,532.000000) scale(0.100000,-0.100000)" fill="#ffffff" stroke="none"> <path d="M1472 4055 c-14 -17 -52 -20 -52 -5 0 15 -34 12 -66 -5 -16 -8 -44 -15 -62 -15 -41 0 -116 -17 -159 -36 -17 -8 -36 -14 -43 -14 -40 0 -120 -63 -120 -95 0 -16 -6 -23 -22 -23 -37 -2 -58 -8 -70 -20 -7 -7 -18 -12 -25 -12 -7 0 -13 -9 -13 -21 0 -13 -10 -23 -30 -30 -24 -9 -30 -17 -30 -40 0 -19 -6 -32 -17 -36 -104 -40 -140 -251 -54 -313 16 -11 35 -20 43 -20 11 0 14 -19 15 -82 1 -66 7 -100 32 -168 17 -47 31 -92 31 -102 0 -9 5 -18 12 -20 8 -3 13 -40 14 -119 0 -63 6 -136 13 -164 6 -27 16 -84 20 -125 10 -84 44 -206 72 -261 10 -20 41 -62 70 -93 46 -51 51 -59 45 -91 -4 -21 -14 -36 -26 -40 -18 -6 -29 -25 -15 -25 17 0 55 35 55 51 0 11 5 19 10 19 6 0 10 -4 10 -9 0 -24 139 -145 203 -177 66 -34 165 -52 203 -37 27 10 13 22 -33 28 -27 3 -56 10 -66 16 -10 5 -22 7 -27 4 -6 -3 -20 1 -32 9 -12 9 -31 16 -41 16 -45 0 -171 122 -249 243 -28 42 -55 77 -61 77 -6 0 -8 3 -4 6 3 3 -5 25 -18 48 -25 45 -49 151 -38 170 5 7 2 7 -8 -1 -13 -10 -15 -6 -17 25 -2 20 -10 66 -18 101 -27 118 -26 161 9 481 8 69 17 133 22 143 11 25 -10 21 -23 -5 -14 -29 -32 -139 -33 -209 -2 -49 -2 -51 -9 -19 -4 19 -8 28 -9 20 -2 -16 -48 110 -61 168 -6 24 -5 35 5 38 7 3 11 14 8 25 -5 16 -8 18 -14 7 -5 -7 -9 -8 -9 -3 0 6 4 16 9 24 6 9 2 25 -12 46 -15 24 -28 32 -50 32 -30 0 -57 24 -57 50 0 22 16 15 28 -13 7 -14 17 -22 22 -19 6 3 10 1 10 -6 0 -7 2 -10 5 -7 3 3 2 19 -1 37 -5 21 -10 28 -15 20 -11 -18 -34 65 -24 88 5 10 7 22 6 27 -1 5 23 33 54 62 30 29 55 57 54 61 -4 21 3 31 24 37 13 3 29 17 35 31 6 14 18 25 27 25 8 0 15 4 15 9 0 5 12 12 28 16 31 7 72 38 72 54 0 6 5 11 10 11 6 0 10 9 10 19 0 13 7 19 23 20 43 1 97 13 92 21 -6 10 211 49 238 42 4 -1 7 3 7 8 0 6 5 10 11 10 5 0 7 -5 4 -10 -5 -7 3 -8 22 -3 15 4 39 7 52 6 18 -1 21 1 10 8 -9 7 4 8 41 5 30 -3 76 -6 103 -7 26 -1 50 -6 53 -10 3 -5 14 -9 25 -9 24 0 85 -30 116 -57 12 -11 33 -28 47 -39 15 -10 24 -24 22 -31 -3 -7 1 -10 8 -7 12 5 41 -24 85 -83 14 -18 29 -29 34 -26 6 3 7 1 3 -5 -7 -12 15 -42 87 -114 26 -26 45 -48 42 -48 -3 0 1 -10 9 -22 8 -13 17 -45 21 -73 10 -81 28 -148 46 -175 10 -14 20 -43 24 -64 3 -21 14 -50 22 -63 13 -20 14 -28 3 -48 -7 -14 -19 -25 -27 -25 -7 0 -22 -9 -33 -20 -20 -20 -20 -20 13 -20 40 0 72 21 92 61 17 31 13 46 -17 67 -12 9 -18 26 -18 50 0 21 -7 48 -16 60 -20 28 -45 115 -46 156 0 66 -32 130 -99 201 -70 73 -119 132 -119 142 0 14 -115 121 -175 164 -76 54 -179 85 -242 73 -26 -5 -34 -4 -29 5 11 17 -86 14 -102 -4z"/> <path d="M1233 3393 c9 -2 25 -2 35 0 9 3 1 5 -18 5 -19 0 -27 -2 -17 -5z"/> <path d="M1213 3359 c-11 -5 1 -7 30 -6 26 1 47 5 47 9 0 10 -50 7 -77 -3z"/> <path d="M1310 3354 c0 -10 13 -14 40 -14 31 0 38 -3 34 -15 -5 -13 -2 -14 20 -5 20 7 26 6 26 -4 0 -13 107 -66 133 -66 8 0 17 -3 21 -7 6 -7 90 -31 109 -33 4 0 7 4 7 8 0 9 -64 42 -83 42 -7 0 -25 7 -42 16 -16 9 -37 17 -45 18 -19 3 -44 12 -95 36 -63 28 -125 40 -125 24z"/> <path d="M1375 3270 c10 -11 23 -20 28 -20 6 0 2 9 -8 20 -10 11 -23 20 -28 20 -6 0 -2 -9 8 -20z"/> <path d="M1089 3170 c-48 -12 -109 -48 -109 -65 0 -11 7 -10 32 3 52 25 295 15 319 -14 14 -17 45 -18 53 -1 3 6 3 2 0 -10 -5 -22 13 -33 29 -17 10 10 -15 54 -31 54 -9 0 -26 10 -39 22 -21 19 -23 20 -23 4 0 -14 -3 -16 -12 -8 -7 5 -27 13 -45 16 -25 6 -32 4 -36 -11 -4 -17 -5 -17 -13 2 -5 11 -16 21 -24 21 -8 1 -26 4 -40 7 -14 3 -41 1 -61 -3z"/> <path d="M1798 3142 c-27 -2 -48 -8 -48 -13 0 -7 -15 -9 -37 -5 -53 8 -108 -6 -109 -27 -2 -14 -1 -14 3 -2 3 11 8 13 16 6 8 -6 39 -6 87 0 165 20 209 22 225 9 12 -10 15 -10 15 3 0 25 -59 36 -152 29z"/> <path d="M1546 3131 c-4 -5 -2 -12 4 -16 5 -3 10 -15 10 -26 0 -10 7 -19 14 -19 12 0 13 6 4 30 -11 33 -24 45 -32 31z"/> <path d="M1967 3100 c3 -11 12 -20 21 -20 13 0 12 3 -3 20 -10 11 -19 20 -21 20 -1 0 0 -9 3 -20z"/> <path d="M2138 3046 c-20 -14 -38 -31 -40 -38 -3 -8 -12 -1 -22 17 -16 29 -17 27 -11 -85 5 -96 3 -132 -15 -215 -12 -55 -27 -109 -34 -120 -7 -11 -16 -37 -20 -58 -4 -21 -16 -54 -26 -73 -11 -19 -20 -36 -20 -39 0 -3 -1 -7 -1 -10 -1 -3 -2 -8 -3 -12 -12 -46 -31 -93 -38 -93 -4 0 -8 -8 -8 -18 0 -35 -78 -172 -97 -172 -7 0 -13 -7 -13 -15 0 -8 -3 -15 -7 -15 -7 0 -57 -43 -114 -95 -9 -8 -26 -15 -38 -15 -12 0 -19 -4 -16 -10 5 -9 -28 -15 -73 -13 -8 1 -11 -5 -8 -14 3 -8 6 -17 6 -19 0 -9 37 -3 64 11 15 8 35 15 42 15 8 0 14 5 14 10 0 6 8 10 18 10 15 0 132 102 132 115 0 6 15 26 41 53 9 9 22 27 28 40 11 20 43 32 40 15 -1 -5 -1 -15 0 -23 1 -13 3 -13 10 -1 5 8 16 11 27 7 16 -6 16 -7 -2 -21 -12 -9 -14 -14 -6 -15 7 0 12 -6 10 -12 -3 -16 26 -70 46 -87 14 -12 16 -9 16 23 0 29 5 38 23 45 15 6 24 4 30 -4 4 -8 21 -16 37 -20 25 -5 30 -11 25 -26 -9 -26 3 -24 31 6 13 14 31 25 41 25 21 0 55 -20 36 -20 -7 0 -13 -5 -13 -11 0 -6 6 -9 14 -6 14 6 23 -10 46 -85 6 -21 16 -38 22 -38 6 0 7 -7 4 -16 -4 -12 -2 -15 9 -10 11 4 15 -1 15 -17 0 -18 -2 -19 -11 -7 -9 12 -10 12 -5 -3 6 -19 -9 -57 -27 -69 -25 -16 78 -72 130 -70 18 1 35 -3 38 -8 3 -5 24 -14 46 -20 22 -6 37 -15 34 -20 -4 -6 1 -10 9 -10 9 0 16 4 16 10 0 5 10 10 23 9 40 -1 180 12 189 17 4 3 8 1 8 -5 0 -5 18 -12 40 -16 22 -4 40 -11 40 -16 0 -5 6 -9 13 -9 7 0 18 -5 25 -12 6 -6 23 -13 38 -14 15 -2 30 -8 34 -15 5 -6 10 -7 13 -2 14 23 -103 84 -200 104 -49 10 -75 10 -126 1 -90 -17 -135 -15 -171 7 -17 10 -53 21 -79 25 -83 10 -107 37 -71 77 26 29 20 57 -38 169 -46 92 -57 106 -86 114 -24 7 -43 5 -73 -7 l-41 -16 -60 39 c-33 22 -70 43 -83 46 -46 11 -50 29 -22 87 14 29 42 109 62 178 23 79 49 142 70 174 85 128 120 279 75 320 -26 23 -26 55 -1 55 11 0 21 5 23 11 2 6 25 13 51 16 50 6 75 23 34 23 -14 0 -37 2 -53 5 -21 4 -39 -1 -66 -19z m1 -167 c1 -51 -10 -103 -19 -89 -4 7 -10 -8 -14 -34 -4 -25 -11 -48 -17 -51 -5 -4 -9 -15 -9 -25 0 -10 -5 -22 -11 -26 -8 -4 -9 1 -3 17 4 13 7 33 7 44 0 11 6 43 12 70 7 28 11 72 10 98 -3 36 0 49 13 56 21 12 30 -7 31 -60z m-129 -765 c0 -14 -3 -14 -15 -4 -8 7 -15 14 -15 16 0 2 7 4 15 4 8 0 15 -7 15 -16z"/> <path d="M1110 3022 c-64 -32 -78 -62 -29 -62 23 0 30 4 26 14 -3 8 1 20 9 27 12 10 18 8 35 -9 30 -32 76 -29 91 6 7 15 13 28 14 30 1 2 20 -7 43 -19 22 -11 38 -25 35 -30 -3 -5 0 -9 6 -9 7 0 9 7 6 16 -3 9 -6 17 -6 20 0 2 -18 13 -40 24 -56 29 -123 26 -190 -8z m108 6 c19 -19 14 -29 -9 -16 -17 10 -23 10 -26 1 -6 -18 -23 -16 -23 1 0 24 39 33 58 14z"/> <path d="M1733 3029 c-23 -4 -51 -13 -62 -19 -22 -11 -58 -70 -43 -70 5 0 14 10 21 23 11 20 53 47 73 47 4 0 8 -6 8 -14 0 -22 29 -46 55 -46 13 0 29 10 40 26 16 25 17 25 36 8 11 -10 17 -24 15 -31 -5 -12 39 -31 49 -21 11 11 -10 45 -40 65 -45 30 -100 41 -152 32z m75 -36 c3 -19 -1 -23 -25 -22 -17 1 -21 3 -10 6 26 7 20 23 -9 23 -15 0 -23 4 -19 11 4 5 19 9 33 7 19 -2 28 -10 30 -25z"/> <path d="M759 2953 c-9 -30 -9 -50 6 -117 9 -45 23 -97 30 -116 8 -19 19 -51 24 -70 14 -45 51 -102 51 -78 0 9 -5 18 -10 20 -6 2 -11 19 -13 38 -1 19 -10 44 -19 54 -10 10 -20 40 -23 65 -4 25 -11 62 -16 81 -14 53 -11 101 7 121 9 10 13 23 9 28 -13 22 -34 10 -46 -26z"/> <path d="M1287 2935 c-15 -7 -39 -16 -54 -18 -21 -3 -18 -4 12 -5 22 -1 49 5 59 13 27 20 16 27 -17 10z"/> <path d="M1620 2735 c0 -8 5 -15 10 -15 6 0 10 7 10 15 0 8 -4 15 -10 15 -5 0 -10 -7 -10 -15z"/> <path d="M1660 2663 c0 -35 -22 -73 -42 -73 -10 0 -18 -4 -18 -10 0 -15 43 -12 68 6 26 18 27 32 7 70 -13 26 -15 27 -15 7z"/> <path d="M1380 2635 c-7 -9 -10 -18 -7 -21 9 -9 78 17 72 27 -10 14 -51 10 -65 -6z"/> <path d="M1536 2635 c-3 -8 -13 -15 -23 -16 -17 0 -16 -1 1 -8 26 -10 76 -1 76 14 0 12 -21 25 -40 25 -4 0 -10 -7 -14 -15z"/> <path d="M1335 2590 c3 -5 17 -10 31 -10 13 0 24 5 24 10 0 6 -14 10 -31 10 -17 0 -28 -4 -24 -10z"/> <path d="M1370 2530 c-21 -29 -21 -30 -2 -30 15 0 19 5 15 20 -3 11 0 20 6 20 6 0 11 -7 11 -15 0 -17 9 -19 30 -5 9 6 10 10 3 10 -6 0 -18 7 -27 15 -13 13 -17 12 -36 -15z"/> <path d="M1536 2544 c-8 -20 18 -41 61 -50 18 -3 37 -12 44 -20 6 -8 17 -14 23 -14 20 1 -44 50 -65 50 -11 0 -17 5 -14 10 3 6 -1 10 -9 10 -10 0 -13 6 -10 15 4 9 0 15 -9 15 -8 0 -18 -7 -21 -16z"/> <path d="M2372 2518 c5 -15 28 -23 28 -10 0 5 -7 13 -16 16 -10 4 -14 1 -12 -6z"/> <path d="M1282 2487 c-6 -7 -32 -23 -57 -36 -45 -22 -54 -41 -35 -71 9 -13 10 -13 10 1 0 17 46 63 71 72 9 3 19 15 22 26 6 24 4 26 -11 8z"/> <path d="M1687 2473 c-14 -13 -6 -22 28 -34 26 -10 34 -18 33 -34 -2 -11 2 -21 7 -23 6 -1 11 8 13 21 2 17 -6 32 -28 51 -33 27 -42 31 -53 19z"/> <path d="M1495 2460 c-4 -6 10 -10 34 -10 23 0 41 5 41 10 0 6 -15 10 -34 10 -19 0 -38 -4 -41 -10z"/> <path d="M1324 2440 c-5 -5 -27 -18 -49 -29 -32 -16 -37 -21 -22 -26 10 -4 28 0 42 9 15 10 26 12 30 6 4 -6 11 -8 16 -4 5 3 6 10 3 16 -4 6 1 17 11 25 18 12 18 13 -1 13 -11 0 -24 -4 -30 -10z"/> <path d="M1626 2412 c5 -18 53 -46 63 -36 6 6 -48 54 -61 54 -3 0 -4 -8 -2 -18z"/> <path d="M1370 2389 c0 -10 112 -15 189 -8 54 5 59 6 26 9 -74 7 -215 6 -215 -1z"/> <path d="M2910 2363 c0 -5 9 -18 20 -28 11 -10 20 -15 20 -11 0 4 -9 16 -20 28 -11 12 -20 17 -20 11z"/> <path d="M1610 2327 c-11 -19 -11 -20 1 -11 8 6 21 13 28 16 13 4 13 5 0 10 -9 4 -21 -2 -29 -15z"/> <path d="M1555 2310 c-3 -5 1 -10 9 -10 8 0 18 5 21 10 3 6 -1 10 -9 10 -8 0 -18 -4 -21 -10z"/> <path d="M863 2089 c-25 -7 -48 -30 -93 -90 -33 -45 -60 -90 -60 -100 0 -10 -15 -36 -33 -56 -19 -21 -48 -59 -65 -85 -31 -46 -65 -65 -119 -66 -69 -2 -390 -144 -392 -174 -2 -15 50 -21 62 -8 10 10 8 12 -5 7 -28 -10 -21 8 10 24 15 8 30 18 34 24 5 6 8 5 8 -2 0 -7 4 -12 9 -10 14 3 51 -44 73 -93 11 -25 26 -58 33 -75 7 -16 19 -52 26 -80 6 -27 15 -54 19 -60 8 -11 19 -96 25 -195 5 -63 10 -103 24 -185 7 -39 8 -39 15 -12 5 15 5 44 1 65 -9 48 -9 99 0 193 5 53 4 78 -4 83 -8 5 -10 -6 -6 -38 3 -25 2 -46 -3 -46 -11 0 -18 26 -37 140 -7 47 -24 108 -36 135 -13 28 -23 55 -24 60 0 10 -17 38 -68 115 l-17 27 57 17 c32 9 72 23 88 30 44 19 92 33 163 47 48 10 62 17 62 31 0 10 4 18 8 18 5 0 15 11 22 25 7 13 17 22 21 19 5 -3 6 2 3 10 -4 10 -1 16 8 16 8 0 23 18 34 39 15 31 20 36 26 23 5 -13 7 -11 8 8 2 14 2 31 1 38 -1 6 6 12 15 12 11 0 14 5 10 16 -4 9 6 30 24 52 16 20 30 42 30 49 0 7 4 13 9 13 12 0 31 -88 31 -140 0 -22 5 -40 10 -40 6 0 10 10 10 23 0 12 8 38 19 57 17 32 17 37 3 68 -14 29 -14 34 -2 43 8 5 29 8 46 5 18 -2 37 1 44 7 10 9 14 9 17 0 3 -7 17 -13 31 -13 26 1 26 1 -8 17 -42 18 -122 24 -167 12z m20 -96 c5 -26 4 -26 -9 -8 -15 21 -19 49 -5 41 5 -3 11 -18 14 -33z"/> <path d="M1957 2034 c-3 -3 -3 -28 0 -55 5 -43 4 -49 -13 -49 -16 0 -16 -2 -4 -10 26 -16 40 8 37 66 -2 51 -6 62 -20 48z"/> <path d="M1026 1975 c-14 -30 -30 -80 -34 -111 -9 -54 -8 -56 16 -65 36 -14 44 -8 48 36 l3 40 -19 -22 c-10 -13 -21 -23 -24 -23 -9 0 -7 28 2 48 56 115 62 135 42 147 -5 3 -21 -19 -34 -50z"/> <path d="M1763 1883 c-18 -6 -16 -23 1 -23 17 0 30 16 19 23 -5 2 -14 2 -20 0z"/> <path d="M100 1851 c0 -5 7 -12 16 -15 24 -9 27 -7 10 9 -17 17 -26 19 -26 6z"/> <path d="M1682 1834 c-15 -12 -15 -13 -1 -14 8 0 23 6 33 13 17 12 17 14 2 14 -9 0 -24 -6 -34 -13z"/> <path d="M2187 1844 c-13 -13 6 -32 28 -28 13 2 27 0 30 -6 3 -5 13 -10 21 -10 20 0 7 19 -20 29 -13 5 -24 4 -28 -3 -5 -7 -8 -5 -8 7 0 17 -11 23 -23 11z"/> <path d="M1957 1828 c-6 -4 -8 -8 -3 -8 5 0 3 -6 -3 -14 -14 -17 -21 -119 -10 -158 7 -26 5 -28 -22 -28 -16 0 -29 5 -29 10 0 6 -4 10 -10 10 -5 0 -10 -8 -10 -18 0 -10 -5 -23 -12 -30 -9 -9 -8 -12 5 -12 9 0 17 5 17 10 0 12 40 13 59 1 21 -13 10 -120 -14 -137 -18 -13 -18 -14 3 -14 21 0 22 -4 18 -57 -4 -54 -7 -60 -55 -104 -28 -26 -51 -50 -51 -53 0 -4 -7 -14 -15 -22 -8 -9 -15 -20 -15 -25 0 -5 27 18 61 51 33 33 64 60 69 60 4 0 7 -18 6 -40 -1 -22 0 -40 3 -40 6 0 4 -863 -2 -1082 -3 -102 -1 -128 10 -128 15 0 16 37 13 1049 -1 370 -4 680 -7 687 -3 8 7 26 21 39 30 28 23 34 -12 9 -27 -19 -29 -4 -3 20 11 10 31 16 46 14 l28 -3 -3 -430 c-1 -236 -4 -603 -8 -815 -8 -527 -8 -557 1 -566 4 -4 9 -5 12 -3 8 9 18 330 31 1053 3 182 10 338 15 347 5 11 5 19 -1 21 -5 2 -12 43 -16 91 -5 77 -3 92 13 109 18 21 17 21 -3 16 -20 -5 -21 -2 -18 46 10 132 0 158 -58 154 -21 -1 -44 -5 -51 -10z"/> <path d="M2166 1768 c-7 -29 10 -47 19 -19 3 12 11 21 16 21 5 0 9 5 9 10 0 20 -38 10 -44 -12z"/> <path d="M934 1748 c-3 -10 -9 -18 -14 -18 -15 0 -18 -51 -3 -66 13 -12 13 -17 1 -31 -11 -14 -11 -16 1 -8 11 6 13 -1 9 -40 -4 -29 -2 -42 3 -34 6 10 9 4 9 -19 0 -20 -4 -31 -10 -27 -5 3 -10 -1 -10 -10 0 -9 5 -13 10 -10 6 3 10 1 10 -6 0 -7 -10 -9 -27 -6 l-28 5 28 -20 c20 -15 27 -28 26 -51 -1 -31 -1 -31 -9 -7 -6 20 -8 14 -9 -28 -1 -29 4 -61 11 -72 10 -15 9 -24 -2 -45 -11 -21 -12 -34 -1 -76 11 -42 9 -188 -4 -264 -1 -5 -3 -14 -3 -20 -2 -13 -14 -416 -13 -435 0 -8 0 -44 0 -80 0 -36 -1 -72 -1 -80 0 -8 -2 -22 -5 -30 -10 -32 -8 -270 3 -270 11 0 20 179 29 585 3 116 8 239 11 275 3 36 7 229 10 429 5 358 5 364 -15 378 -26 17 -27 45 -3 66 21 19 41 23 69 13 30 -10 36 -35 24 -103 -13 -70 -20 -363 -9 -363 4 0 8 -5 8 -11 0 -5 -4 -7 -10 -4 -6 4 -10 -41 -11 -127 -4 -624 -8 -920 -14 -1020 -5 -84 -4 -118 4 -118 6 0 11 19 12 43 0 23 2 58 5 77 2 19 6 233 8 475 3 359 7 450 19 494 10 33 13 61 8 70 -15 28 -11 99 6 105 10 4 14 15 10 32 -2 14 2 31 10 40 15 15 15 15 -34 30 -11 3 -20 64 -10 64 2 0 18 -7 36 -16 37 -18 51 -13 30 12 -13 16 -11 17 15 12 20 -4 34 0 48 14 20 20 20 20 -4 12 -12 -5 -43 -9 -68 -9 l-45 0 0 80 c0 44 3 105 7 136 l6 56 -37 21 c-44 25 -79 25 -87 0z"/> <path d="M834 1724 c3 -9 6 -20 6 -25 0 -5 4 -9 9 -9 4 0 6 11 3 25 -2 14 -9 25 -14 25 -6 0 -7 -7 -4 -16z"/> <path d="M1210 1730 c0 -5 9 -10 21 -10 11 0 17 5 14 10 -3 6 -13 10 -21 10 -8 0 -14 -4 -14 -10z"/> <path d="M1313 1733 c9 -2 25 -2 35 0 9 3 1 5 -18 5 -19 0 -27 -2 -17 -5z"/> <path d="M2213 1733 c-7 -2 -13 -10 -13 -16 0 -7 -18 -29 -40 -49 -21 -21 -35 -40 -31 -43 5 -3 26 16 47 41 36 43 59 75 52 73 -2 0 -9 -3 -15 -6z"/> <path d="M953 1723 c-15 -5 -17 -29 -4 -37 5 -3 11 5 13 19 3 14 5 25 4 24 0 0 -7 -3 -13 -6z"/> <path d="M1871 1676 c-7 -8 -8 -17 -3 -20 6 -3 13 1 16 10 9 23 2 28 -13 10z"/> <path d="M620 1670 c0 -5 9 -10 20 -10 11 0 20 5 20 10 0 6 -9 10 -20 10 -11 0 -20 -4 -20 -10z"/> <path d="M564 1658 c3 -7 9 -21 12 -30 8 -22 24 -24 24 -3 0 8 -5 15 -11 15 -5 0 -8 4 -5 9 3 5 -1 12 -10 15 -10 4 -14 2 -10 -6z"/> <path d="M690 1666 c0 -4 7 -21 16 -39 14 -26 15 -48 9 -132 -15 -193 -14 -524 3 -600 14 -68 39 -131 48 -123 2 3 -5 40 -16 84 -21 83 -25 201 -11 347 3 43 3 81 -1 83 -4 3 -8 -7 -9 -23 -1 -27 -1 -27 -8 -4 -13 49 1 189 21 202 13 8 12 87 -1 136 -9 34 -51 91 -51 69z"/> <path d="M859 1642 c-11 -32 -17 -36 -54 -33 -17 2 -17 0 -5 -8 8 -6 27 -11 41 -11 23 0 27 5 31 38 7 48 1 54 -13 14z"/> <path d="M2960 1603 c0 -13 5 -23 10 -23 13 0 13 11 0 30 -8 12 -10 11 -10 -7z"/> <path d="M45 1498 c-33 -19 -47 -48 -22 -48 7 0 26 14 42 30 30 31 19 40 -20 18z"/> <path d="M176 1453 c42 -96 66 -174 79 -257 l14 -91 -4 90 c-2 50 -11 111 -20 135 -29 78 -68 160 -77 160 -5 0 -1 -17 8 -37z"/> <path d="M1860 1430 c0 -13 11 -13 30 0 12 8 11 10 -7 10 -13 0 -23 -4 -23 -10z"/> <path d="M1697 1400 c-37 -7 -54 -16 -46 -24 2 -3 29 4 59 14 57 19 52 23 -13 10z"/> <path d="M1303 1393 c9 -2 25 -2 35 0 9 3 1 5 -18 5 -19 0 -27 -2 -17 -5z"/> <path d="M33 1360 c-1 -11 2 -20 8 -20 5 0 9 9 9 20 0 11 -4 20 -8 20 -4 0 -8 -9 -9 -20z"/> <path d="M160 1286 c0 -12 4 -36 10 -52 5 -16 16 -67 24 -114 8 -47 22 -123 30 -170 9 -47 16 -116 17 -155 l2 -70 8 65 c7 53 4 95 -17 225 -14 88 -34 184 -44 214 -10 30 -16 60 -13 68 3 7 0 13 -6 13 -6 0 -11 -11 -11 -24z"/> <path d="M11 1250 c-1 -8 -4 -26 -7 -40 -5 -19 -4 -22 5 -14 7 6 11 24 8 40 -2 16 -5 22 -6 14z"/> <path d="M2913 1228 c-7 -8 -8 -49 -4 -108 l7 -95 6 105 c3 58 5 106 3 108 -1 1 -7 -3 -12 -10z"/> <path d="M14 1128 c20 -99 33 -146 63 -238 24 -70 36 -126 37 -167 1 -62 8 -78 20 -47 11 29 6 70 -20 155 -40 130 -67 232 -66 251 0 10 -3 20 -9 23 -5 4 -9 15 -9 26 0 10 -5 19 -10 19 -6 0 -8 -10 -6 -22z"/> <path d="M568 1045 c2 -19 6 -35 8 -35 2 0 4 16 4 35 0 19 -4 35 -8 35 -4 0 -6 -16 -4 -35z"/> <path d="M2912 970 c0 -19 2 -27 5 -17 2 9 2 25 0 35 -3 9 -5 1 -5 -18z"/> <path d="M560 963 c0 -13 5 -23 10 -23 13 0 13 11 0 30 -8 12 -10 11 -10 -7z"/> <path d="M2911 657 c-1 -193 3 -303 15 -389 16 -129 21 -170 24 -233 l2 -40 10 50 c5 27 14 55 19 61 6 8 6 13 -1 16 -9 3 -29 94 -50 231 -5 33 -7 136 -4 230 3 95 1 210 -4 257 -8 71 -10 39 -11 -183z"/> <path d="M580 900 c-4 -21 0 -94 6 -99 9 -10 10 7 4 59 -4 30 -8 48 -10 40z"/> <path d="M387 756 c-4 -10 -5 -21 -2 -24 9 -9 17 6 13 25 -3 17 -4 17 -11 -1z"/> <path d="M593 660 c0 -41 2 -58 4 -37 2 20 2 54 0 75 -2 20 -4 3 -4 -38z"/> <path d="M239 688 c0 -13 -2 -55 -4 -94 -2 -39 0 -84 5 -100 6 -20 9 8 9 94 1 67 -1 122 -4 122 -3 0 -5 -10 -6 -22z"/> <path d="M359 620 c-5 -28 -5 -100 1 -100 11 0 17 78 8 93 -4 7 -8 10 -9 7z"/> <path d="M603 430 c0 -30 2 -43 4 -27 2 15 2 39 0 55 -2 15 -4 2 -4 -28z"/> <path d="M233 415 c0 -22 2 -30 4 -17 2 12 2 30 0 40 -3 9 -5 -1 -4 -23z"/> <path d="M209 293 c0 -10 -2 -34 -5 -53 -4 -32 -3 -33 11 -15 16 23 20 85 5 85 -5 0 -10 -8 -11 -17z"/> <path d="M173 150 c-7 -10 -10 -27 -6 -36 5 -12 9 -9 19 16 16 37 17 40 6 40 -4 0 -13 -9 -19 -20z"/> <path d="M583 125 c0 -27 2 -38 4 -22 2 15 2 37 0 50 -2 12 -4 0 -4 -28z"/> <path d="M147 63 c-11 -10 -8 -63 3 -63 6 0 10 9 10 19 0 11 5 23 10 26 6 3 10 10 10 16 0 10 -23 12 -33 2z"/> </g> </svg> 